<?xml version="1.0" encoding="UTF-8" standalone="no"?>
<!-- Created with Inkscape (http://www.inkscape.org/) -->

<svg
   width="500"
   height="500"
   viewBox="0 0 132.29166 132.29167"
   version="1.1"
   id="svg1"
   inkscape:version="1.3 (0e150ed6c4, 2023-07-21)"
   sodipodi:docname="logo.svg"
   inkscape:export-filename="logo192.png"
   inkscape:export-xdpi="36.863998"
   inkscape:export-ydpi="36.863998"
   xmlns:inkscape="http://www.inkscape.org/namespaces/inkscape"
   xmlns:sodipodi="http://sodipodi.sourceforge.net/DTD/sodipodi-0.dtd"
   xmlns="http://www.w3.org/2000/svg"
   xmlns:svg="http://www.w3.org/2000/svg">
  <sodipodi:namedview
     id="namedview1"
     pagecolor="#ffffff"
     bordercolor="#000000"
     borderopacity="0.25"
     inkscape:showpageshadow="2"
     inkscape:pageopacity="0.0"
     inkscape:pagecheckerboard="0"
     inkscape:deskcolor="#d1d1d1"
     inkscape:document-units="mm"
     inkscape:zoom="0.33197215"
     inkscape:cx="563.30026"
     inkscape:cy="531.6711"
     inkscape:window-width="1366"
     inkscape:window-height="705"
     inkscape:window-x="-8"
     inkscape:window-y="-8"
     inkscape:window-maximized="1"
     inkscape:current-layer="layer1" />
  <defs
     id="defs1" />
  <g
     inkscape:label="Layer 1"
     inkscape:groupmode="layer"
     id="layer1">
    <path
       style="fill:#00ffff;stroke-width:0.272869"
       d="m 58.667568,21.625256 c 21.152763,-19.4516095 10.072745,20.12235 10.072745,20.12235 0,0 -9.569108,28.842024 -27.700049,42.256925 C 22.909323,97.419433 8.8074793,75.284854 8.8074793,75.284854 c 0,0 -16.4630216,44.052266 3.0218237,51.647366 20.649127,8.04894 45.327354,9.39042 53.385549,-32.195767 8.058198,-41.586189 13.598209,-46.95215 13.598209,-46.95215 l -3.021825,54.330347 c 0,0 1.007275,37.56172 9.065473,6.03671 8.058184,-31.525021 14.605466,-95.245781 14.101836,-52.988852 -0.503643,42.256925 -17.123664,65.062262 4.029105,69.757482 21.15275,4.69521 27.1964,-36.220246 27.1964,-36.220246 0,0 -13.09457,30.183536 -22.66367,22.134586 -8.685056,-7.30533 5.83649,-40.993405 7.55455,-61.708543 C 116.02447,37.676959 115.31088,7.9485043 99.965815,24.978985 90.900344,35.040146 86.367617,54.49176 86.367617,54.49176 c 0,0 2.518186,-13.414902 -2.518187,-37.561716 C 78.813061,-7.2167835 58.16393,0.83216232 52.623921,9.5518394 47.083911,18.271528 53.686602,26.20564 58.667568,21.625256 Z"
       id="path1"
       sodipodi:nodetypes="scscssccssscssscsss" />
  </g>
</svg>
